<svg xmlns="http://www.w3.org/2000/svg" width="16" height="14" viewBox="0 0 16 14" fill="none">
  <path d="M3.58143 14H0.264286V4.65292H3.58143V14ZM1.92107 3.37789C0.860357 3.37789 0 2.60912 0 1.68097C7.59214e-09 1.23515 0.202398 0.80759 0.562669 0.492346C0.92294 0.177102 1.41157 0 1.92107 0C2.43057 0 2.9192 0.177102 3.27947 0.492346C3.63974 0.80759 3.84214 1.23515 3.84214 1.68097C3.84214 2.60912 2.98143 3.37789 1.92107 3.37789ZM15.9964 14H12.6864V9.4499C12.6864 8.3655 12.6614 6.97484 10.9618 6.97484C9.23714 6.97484 8.97286 8.15299 8.97286 9.37177V14H5.65929V4.65292H8.84071V5.92794H8.88714C9.33 5.19355 10.4118 4.41854 12.0257 4.41854C15.3829 4.41854 16 6.35295 16 8.86551V14H15.9964Z" fill="#C5C5C5"/>
</svg>