<svg width="22" height="28" viewBox="0 0 22 28" fill="none" xmlns="http://www.w3.org/2000/svg">
<path d="M14.5125 13.35C14.5125 14.1597 13.95 14.8235 13.2375 14.8235C12.5375 14.8235 11.9625 14.1597 11.9625 13.35C11.9625 12.5402 12.525 11.8764 13.2375 11.8764C13.95 11.8764 14.5125 12.5402 14.5125 13.35ZM8.675 11.8764C7.9625 11.8764 7.4 12.5402 7.4 13.35C7.4 14.1597 7.975 14.8235 8.675 14.8235C9.3875 14.8235 9.95 14.1597 9.95 13.35C9.9625 12.5402 9.3875 11.8764 8.675 11.8764ZM21.875 3.47341V27.2886C18.7259 24.3332 19.733 25.3115 16.075 21.6999L16.7375 24.1558H2.5625C1.15 24.1558 0 22.9345 0 21.4211V3.47341C0 1.96006 1.15 0.73877 2.5625 0.73877H19.3125C20.725 0.73877 21.875 1.96006 21.875 3.47341ZM18.3125 16.058C18.3125 11.7835 16.5125 8.31876 16.5125 8.31876C14.7125 6.88506 13 6.92489 13 6.92489L12.825 7.13729C14.95 7.82758 15.9375 8.8232 15.9375 8.8232C12.9682 7.09492 9.48027 7.09461 6.6 8.43823C6.1375 8.6639 5.8625 8.8232 5.8625 8.8232C5.8625 8.8232 6.9 7.77448 9.15 7.08419L9.025 6.92489C9.025 6.92489 7.3125 6.88506 5.5125 8.31876C5.5125 8.31876 3.7125 11.7835 3.7125 16.058C3.7125 16.058 4.7625 17.9829 7.525 18.0758C7.525 18.0758 7.9875 17.4785 8.3625 16.974C6.775 16.4696 6.175 15.4076 6.175 15.4076C6.35889 15.5443 6.66211 15.7214 6.6875 15.7394C8.79736 16.9942 11.7943 17.4053 14.4875 16.2041C14.925 16.0315 15.4125 15.7793 15.925 15.4208C15.925 15.4208 15.3 16.5094 13.6625 17.0006C14.0375 17.505 14.4875 18.0758 14.4875 18.0758C17.25 17.9829 18.3125 16.058 18.3125 16.058Z" fill="#ffffff"/>
</svg>
