<svg width="23" height="17" viewBox="0 0 23 17" fill="none" xmlns="http://www.w3.org/2000/svg">
<path d="M22.5643 5.61087C22.7395 5.4737 23 5.60202 23 5.81885V14.8679C23 16.0405 22.0342 16.9919 20.8438 16.9919H2.15625C0.96582 16.9919 0 16.0405 0 14.8679V5.82327C0 5.60202 0.256055 5.47812 0.435742 5.6153C1.44199 6.38524 2.77617 7.36316 7.3582 10.6421C8.30606 11.3235 9.90527 12.7572 11.5 12.7484C13.1037 12.7616 14.7344 11.297 15.6463 10.6421C20.2283 7.36316 21.558 6.38082 22.5643 5.61087ZM11.5 11.3279C12.5422 11.3456 14.0426 10.0358 14.7973 9.496C20.7584 5.23475 21.2121 4.86305 22.5867 3.80106C22.8473 3.60193 23 3.29218 23 2.96473V2.12399C23 0.95137 22.0342 0 20.8438 0H2.15625C0.96582 0 0 0.95137 0 2.12399V2.96473C0 3.29218 0.152734 3.59751 0.413281 3.80106C1.78789 4.85862 2.2416 5.23475 8.20273 9.496C8.95742 10.0358 10.4578 11.3456 11.5 11.3279Z" fill="#ffffff"/>
</svg>
