<svg width="23" height="26" viewBox="0 0 23 26" fill="none" xmlns="http://www.w3.org/2000/svg">
<path d="M7.69294 20.4685C7.69294 20.5695 7.58629 20.6503 7.45181 20.6503C7.29879 20.6654 7.19214 20.5846 7.19214 20.4685C7.19214 20.3674 7.29879 20.2866 7.43327 20.2866C7.57238 20.2715 7.69294 20.3523 7.69294 20.4685ZM6.25081 20.2412C6.21835 20.3422 6.31109 20.4584 6.4502 20.4887C6.57077 20.5392 6.70988 20.4887 6.7377 20.3876C6.76552 20.2866 6.67742 20.1705 6.53831 20.125C6.41774 20.0897 6.28327 20.1402 6.25081 20.2412ZM8.3004 20.1553C8.16593 20.1907 8.07318 20.2866 8.0871 20.4028C8.10101 20.5038 8.22157 20.5695 8.36069 20.5341C8.49516 20.4988 8.5879 20.4028 8.57399 20.3018C8.56008 20.2058 8.43488 20.1402 8.3004 20.1553ZM11.3516 0.800781C4.91996 0.800781 0 6.11924 0 13.1246C0 18.7259 3.23669 23.5191 7.85988 25.2061C8.45343 25.3222 8.6621 24.9232 8.6621 24.5949C8.6621 24.2818 8.64819 22.5544 8.64819 21.4938C8.64819 21.4938 5.40222 22.2514 4.72056 19.9886C4.72056 19.9886 4.19194 18.5189 3.43145 18.1401C3.43145 18.1401 2.36956 17.3471 3.50565 17.3622C3.50565 17.3622 4.66028 17.4633 5.29556 18.6653C6.31109 20.6149 8.0129 20.0543 8.67601 19.7209C8.78266 18.9128 9.08407 18.3522 9.41794 18.0188C6.82581 17.7057 4.21048 17.2966 4.21048 12.4377C4.21048 11.0488 4.5629 10.3518 5.30484 9.46284C5.18427 9.13454 4.79012 7.78094 5.4254 6.03337C6.39456 5.70507 8.625 7.39708 8.625 7.39708C9.55242 7.11424 10.5494 6.96777 11.5371 6.96777C12.5248 6.96777 13.5218 7.11424 14.4492 7.39708C14.4492 7.39708 16.6796 5.70002 17.6488 6.03337C18.2841 7.78599 17.8899 9.13454 17.7694 9.46284C18.5113 10.3568 18.9657 11.0538 18.9657 12.4377C18.9657 17.3117 16.2345 17.7006 13.6423 18.0188C14.069 18.4178 14.4306 19.1755 14.4306 20.3624C14.4306 22.0645 14.4167 24.1707 14.4167 24.5848C14.4167 24.9131 14.63 25.3121 15.219 25.196C19.856 23.5191 23 18.7259 23 13.1246C23 6.11924 17.7833 0.800781 11.3516 0.800781ZM4.50726 18.2209C4.44698 18.2714 4.46089 18.3875 4.53972 18.4835C4.61391 18.5643 4.72056 18.5997 4.78085 18.534C4.84113 18.4835 4.82722 18.3673 4.74839 18.2714C4.67419 18.1906 4.56754 18.1552 4.50726 18.2209ZM4.00645 17.8118C3.97399 17.8774 4.02036 17.9582 4.1131 18.0087C4.1873 18.0592 4.28004 18.0441 4.3125 17.9734C4.34496 17.9077 4.29859 17.8269 4.20585 17.7764C4.1131 17.7461 4.03891 17.7612 4.00645 17.8118ZM5.50887 19.6098C5.43468 19.6755 5.4625 19.827 5.56915 19.923C5.67581 20.0391 5.81028 20.0543 5.87056 19.9735C5.93085 19.9078 5.90302 19.7563 5.81028 19.6603C5.70827 19.5442 5.56915 19.529 5.50887 19.6098ZM4.98024 18.8674C4.90605 18.9179 4.90605 19.0492 4.98024 19.1654C5.05444 19.2815 5.17964 19.332 5.23992 19.2815C5.31411 19.2159 5.31411 19.0846 5.23992 18.9684C5.175 18.8522 5.05444 18.8017 4.98024 18.8674Z" fill="#ffffff"/>
</svg>
