<svg xmlns="http://www.w3.org/2000/svg" width="17" height="15" viewBox="0 0 17 15" fill="none">
  <path d="M5.68609 12.078C5.68609 12.14 5.60726 12.1896 5.50786 12.1896C5.39476 12.1989 5.31593 12.1493 5.31593 12.078C5.31593 12.0159 5.39476 11.9663 5.49415 11.9663C5.59698 11.957 5.68609 12.0066 5.68609 12.078ZM4.62016 11.9384C4.59617 12.0004 4.66472 12.0718 4.76754 12.0904C4.85665 12.1214 4.95948 12.0904 4.98004 12.0283C5.00061 11.9663 4.93548 11.895 4.83266 11.8671C4.74355 11.8454 4.64415 11.8764 4.62016 11.9384ZM6.13508 11.8857C6.03569 11.9074 5.96714 11.9663 5.97742 12.0377C5.9877 12.0997 6.07681 12.14 6.17964 12.1183C6.27903 12.0966 6.34758 12.0377 6.3373 11.9756C6.32702 11.9167 6.23448 11.8764 6.13508 11.8857ZM8.39032 0C3.63649 0 0 3.26608 0 7.56812C0 11.0079 2.39234 13.9514 5.80948 14.9874C6.24819 15.0587 6.40242 14.8137 6.40242 14.6121C6.40242 14.4198 6.39214 13.359 6.39214 12.7076C6.39214 12.7076 3.99294 13.1729 3.48911 11.7833C3.48911 11.7833 3.09839 10.8807 2.53629 10.6481C2.53629 10.6481 1.75141 10.1611 2.59113 10.1704C2.59113 10.1704 3.44456 10.2325 3.91411 10.9707C4.66472 12.1679 5.92258 11.8236 6.4127 11.6189C6.49153 11.1227 6.71431 10.7784 6.96109 10.5737C5.04516 10.3814 3.1121 10.1301 3.1121 7.14629C3.1121 6.29333 3.37258 5.86529 3.92097 5.3194C3.83186 5.11779 3.54052 4.28653 4.01008 3.21335C4.72641 3.01174 6.375 4.05081 6.375 4.05081C7.06048 3.87711 7.79738 3.78716 8.52742 3.78716C9.25746 3.78716 9.99436 3.87711 10.6798 4.05081C10.6798 4.05081 12.3284 3.00864 13.0448 3.21335C13.5143 4.28964 13.223 5.11779 13.1339 5.3194C13.6823 5.8684 14.0181 6.29643 14.0181 7.14629C14.0181 10.1394 11.9994 10.3783 10.0835 10.5737C10.3988 10.8187 10.6661 11.2839 10.6661 12.0128C10.6661 13.0581 10.6558 14.3515 10.6558 14.6059C10.6558 14.8075 10.8135 15.0525 11.2488 14.9812C14.6762 13.9514 17 11.0079 17 7.56812C17 3.26608 13.1442 0 8.39032 0ZM3.33145 10.6977C3.2869 10.7287 3.29718 10.8001 3.35544 10.859C3.41028 10.9086 3.48911 10.9304 3.53367 10.89C3.57823 10.859 3.56794 10.7877 3.50968 10.7287C3.45484 10.6791 3.37601 10.6574 3.33145 10.6977ZM2.96129 10.4465C2.9373 10.4868 2.97157 10.5364 3.04012 10.5675C3.09496 10.5985 3.16351 10.5892 3.1875 10.5457C3.21149 10.5054 3.17722 10.4558 3.10867 10.4248C3.04012 10.4062 2.98528 10.4155 2.96129 10.4465ZM4.07177 11.5507C4.01694 11.591 4.0375 11.6841 4.11633 11.743C4.19516 11.8143 4.29456 11.8236 4.33911 11.774C4.38367 11.7337 4.3631 11.6406 4.29456 11.5817C4.21915 11.5104 4.11633 11.5011 4.07177 11.5507ZM3.68105 11.0947C3.62621 11.1258 3.62621 11.2064 3.68105 11.2777C3.73589 11.3491 3.82843 11.3801 3.87298 11.3491C3.92782 11.3088 3.92782 11.2281 3.87298 11.1568C3.825 11.0854 3.73589 11.0544 3.68105 11.0947Z" fill="#C5C5C5"/>
</svg>