<svg width="25" height="26" viewBox="0 0 25 26" fill="none" xmlns="http://www.w3.org/2000/svg">
<path d="M5.13887 1.14691C4.98751 0.685403 4.37227 0.685403 4.21602 1.14691L1.45723 10.2112H7.90254C7.89766 10.2112 5.13887 1.14691 5.13887 1.14691ZM0.0460995 14.7745C-0.0808536 15.1893 0.0607479 15.6508 0.392779 15.9153L12.4973 25.4566L1.45235 10.2112L0.0460995 14.7745ZM7.89766 10.2112L12.5022 25.4566L17.1066 10.2112H7.89766ZM24.9582 14.7745L23.552 10.2112L12.5022 25.4566L24.6066 15.9153C24.9436 15.6508 25.0803 15.1893 24.9582 14.7745ZM20.7883 1.14691C20.6369 0.685403 20.0217 0.685403 19.8654 1.14691L17.1018 10.2112H23.5471L20.7883 1.14691Z" fill="#ffffff"/>
</svg>
