<svg width="22" height="24" viewBox="0 0 22 24" fill="none" xmlns="http://www.w3.org/2000/svg">
<path d="M10.946 5.95231C7.84058 5.95231 5.33569 8.61248 5.33569 11.9105C5.33569 15.2085 7.84058 17.8686 10.946 17.8686C14.0515 17.8686 16.5564 15.2085 16.5564 11.9105C16.5564 8.61248 14.0515 5.95231 10.946 5.95231ZM10.946 15.7841C8.93921 15.7841 7.29858 14.0469 7.29858 11.9105C7.29858 9.77404 8.93433 8.03689 10.946 8.03689C12.9578 8.03689 14.5935 9.77404 14.5935 11.9105C14.5935 14.0469 12.9529 15.7841 10.946 15.7841ZM18.0945 5.70859C18.0945 6.48123 17.5085 7.09831 16.7859 7.09831C16.0584 7.09831 15.4773 6.47605 15.4773 5.70859C15.4773 4.94113 16.0632 4.31887 16.7859 4.31887C17.5085 4.31887 18.0945 4.94113 18.0945 5.70859ZM21.8103 7.11905C21.7273 5.25745 21.3269 3.60845 20.0427 2.24985C18.7634 0.891239 17.2107 0.466027 15.4578 0.372688C13.6511 0.263792 8.23608 0.263792 6.42944 0.372688C4.6814 0.460841 3.12866 0.886054 1.84448 2.24466C0.560303 3.60327 0.164795 5.25226 0.0769043 7.11386C-0.0256348 9.03251 -0.0256348 14.7832 0.0769043 16.7019C0.159912 18.5635 0.560303 20.2125 1.84448 21.5711C3.12866 22.9297 4.67651 23.3549 6.42944 23.4483C8.23608 23.5571 13.6511 23.5571 15.4578 23.4483C17.2107 23.3601 18.7634 22.9349 20.0427 21.5711C21.322 20.2125 21.7224 18.5635 21.8103 16.7019C21.9128 14.7832 21.9128 9.03769 21.8103 7.11905ZM19.4763 18.7605C19.0955 19.7769 18.3582 20.5599 17.3962 20.9696C15.9558 21.5763 12.5378 21.4363 10.946 21.4363C9.35425 21.4363 5.9314 21.5711 4.49585 20.9696C3.53882 20.5651 2.80151 19.7821 2.41577 18.7605C1.84448 17.2308 1.97632 13.601 1.97632 11.9105C1.97632 10.22 1.84937 6.58494 2.41577 5.0604C2.79663 4.04404 3.53394 3.26102 4.49585 2.85137C5.93628 2.24466 9.35425 2.38467 10.946 2.38467C12.5378 2.38467 15.9607 2.24985 17.3962 2.85137C18.3533 3.25584 19.0906 4.03885 19.4763 5.0604C20.0476 6.59013 19.9158 10.22 19.9158 11.9105C19.9158 13.601 20.0476 17.236 19.4763 18.7605Z" fill="#ffffff"/>
</svg>
