<svg width="24" height="21" viewBox="0 0 24 21" fill="none" xmlns="http://www.w3.org/2000/svg">
<path d="M2.79785 5.04659C2.82715 4.74065 2.71484 4.4347 2.5 4.22728L0.297852 1.40636V0.986328H7.14355L12.4365 13.3123L17.0898 0.986328H23.6182V1.40636L21.7334 3.325C21.5723 3.45464 21.4893 3.67243 21.5234 3.88503V17.9897C21.4893 18.2023 21.5723 18.42 21.7334 18.5497L23.5742 20.4683V20.8884H14.3115V20.4683L16.2207 18.503C16.4062 18.306 16.4062 18.2437 16.4062 17.943V6.54521L11.0986 20.8521H10.3809L4.20898 6.54521V16.1332C4.15527 16.5377 4.28223 16.9422 4.55078 17.2326L7.03125 20.4268V20.8469H0V20.432L2.48047 17.2326C2.74414 16.9422 2.86621 16.5325 2.79785 16.1332V5.04659Z" fill="#ffffff"/>
</svg>
