<svg width="25" height="22" viewBox="0 0 25 22" fill="none" xmlns="http://www.w3.org/2000/svg">
<path d="M22.4302 5.66498C22.446 5.90082 22.446 6.1367 22.446 6.37254C22.446 13.5659 17.2906 21.8543 7.86802 21.8543C4.96509 21.8543 2.26841 20.9614 0 19.4116C0.412451 19.4621 0.808984 19.479 1.2373 19.479C3.63257 19.479 5.83755 18.6199 7.59834 17.1542C5.3458 17.1037 3.45811 15.537 2.80771 13.3806C3.125 13.4311 3.44224 13.4648 3.77539 13.4648C4.2354 13.4648 4.69546 13.3974 5.12373 13.2796C2.77603 12.7741 1.01519 10.5841 1.01519 7.93924V7.87188C1.69727 8.2762 2.49048 8.52889 3.33115 8.56254C1.95107 7.58543 1.04692 5.91767 1.04692 4.03086C1.04692 3.0201 1.30068 2.09355 1.74487 1.28492C4.26709 4.5868 8.05835 6.7431 12.3096 6.97899C12.2303 6.57467 12.1827 6.15356 12.1827 5.73239C12.1827 2.73371 14.4669 0.291016 17.3064 0.291016C18.7816 0.291016 20.1141 0.948021 21.05 2.00934C22.208 1.7735 23.3184 1.31863 24.302 0.695331C23.9212 1.95883 23.1122 3.02015 22.0494 3.69396C23.0805 3.57609 24.0799 3.27279 24.9999 2.85168C24.302 3.9298 23.4295 4.89 22.4302 5.66498Z" fill="#ffffff"/>
</svg>
