<svg width="24" height="19" viewBox="0 0 24 19" fill="none" xmlns="http://www.w3.org/2000/svg">
<path d="M23.2084 3.75576C22.9358 2.66565 22.1326 1.80712 21.1128 1.51576C19.2642 0.986328 11.8519 0.986328 11.8519 0.986328C11.8519 0.986328 4.43954 0.986328 2.59097 1.51576C1.57114 1.80716 0.767925 2.66565 0.495312 3.75576C0 5.73166 0 9.85417 0 9.85417C0 9.85417 0 13.9767 0.495312 15.9526C0.767925 17.0427 1.57114 17.8654 2.59097 18.1568C4.43954 18.6862 11.8519 18.6862 11.8519 18.6862C11.8519 18.6862 19.2642 18.6862 21.1128 18.1568C22.1326 17.8654 22.9358 17.0427 23.2084 15.9526C23.7037 13.9767 23.7037 9.85417 23.7037 9.85417C23.7037 9.85417 23.7037 5.73166 23.2084 3.75576ZM9.4276 13.5971V6.11124L15.6229 9.85426L9.4276 13.5971Z" fill="#ffffff"/>
</svg>
